<svg width="101" height="40" viewBox="0 0 101 40" fill="none" xmlns="http://www.w3.org/2000/svg">
    <path d="M25.164 7.424V5.304H26.644C27.7 5.304 28.316 4.568 28.316 3.696C28.316 2.824 27.716 2.088 26.644 2.088H24.5V7.424H25.164ZM26.564 4.712H25.164V2.68H26.564C27.196 2.68 27.628 3.096 27.628 3.696C27.628 4.296 27.196 4.712 26.564 4.712Z" fill="#959B9F"/>
    <path d="M32.0273 7.52C33.6033 7.52 34.6753 6.336 34.6753 4.76C34.6753 3.184 33.6033 2 32.0273 2C30.4433 2 29.3793 3.184 29.3793 4.76C29.3793 6.336 30.4433 7.52 32.0273 7.52ZM32.0273 6.928C30.8273 6.928 30.0673 6 30.0673 4.76C30.0673 3.512 30.8273 2.592 32.0273 2.592C33.2193 2.592 33.9873 3.512 33.9873 4.76C33.9873 6 33.2193 6.928 32.0273 6.928Z" fill="#959B9F"/>
    <path d="M40.7563 7.424L42.2763 2.088H41.5403L40.3643 6.536L39.1403 2.088H38.5883L37.3643 6.536L36.1803 2.088H35.4443L36.9643 7.424H37.6842L38.8603 3.12L40.0363 7.424H40.7563Z" fill="#959B9F"/>
    <path d="M46.9148 7.424V6.832H44.0828V4.992H46.8588V4.4H44.0828V2.68H46.9148V2.088H43.4188V7.424H46.9148Z" fill="#959B9F"/>
    <path d="M52.2454 7.424L50.8054 5.248C51.5334 5.184 52.1894 4.656 52.1894 3.696C52.1894 2.712 51.4934 2.088 50.5174 2.088H48.3734V7.424H49.0374V5.304H50.1014L51.4614 7.424H52.2454ZM50.4374 4.72H49.0374V2.68H50.4374C51.0694 2.68 51.5014 3.096 51.5014 3.696C51.5014 4.296 51.0694 4.72 50.4374 4.72Z" fill="#959B9F"/>
    <path d="M57.1366 7.424V6.832H54.3046V4.992H57.0806V4.4H54.3046V2.68H57.1366V2.088H53.6406V7.424H57.1366Z" fill="#959B9F"/>
    <path d="M60.4193 7.424C62.0753 7.424 63.1553 6.28 63.1553 4.76C63.1553 3.248 62.0753 2.088 60.4193 2.088H58.5953V7.424H60.4193ZM60.4193 6.832H59.2593V2.68H60.4193C61.7393 2.68 62.4673 3.608 62.4673 4.76C62.4673 5.904 61.7153 6.832 60.4193 6.832Z" fill="#959B9F"/>
    <path d="M69.4914 7.424C70.4674 7.424 71.0354 6.84 71.0354 5.984C71.0354 5.344 70.5634 4.76 69.9954 4.672C70.4834 4.568 70.9314 4.12 70.9314 3.448C70.9314 2.648 70.3634 2.088 69.4354 2.088H67.0594V7.424H69.4914ZM69.3234 4.4H67.7234V2.68H69.3234C69.9234 2.68 70.2434 3.064 70.2434 3.544C70.2434 4.032 69.9234 4.4 69.3234 4.4ZM69.3554 6.832H67.7234V4.992H69.3554C70.0114 4.992 70.3474 5.424 70.3474 5.912C70.3474 6.48 69.9794 6.832 69.3554 6.832Z" fill="#959B9F"/>
    <path d="M74.4644 7.424V5.168L76.5604 2.088H75.7844L74.1284 4.568L72.4724 2.088H71.6964L73.8004 5.168V7.424H74.4644Z" fill="#959B9F"/>
    <g clip-path="url(#clip0)">
      <path fill-rule="evenodd" clip-rule="evenodd" d="M8.97142 29.1735H4.20129C4.09255 29.1735 3.98531 29.1482 3.88802 29.0996C3.79074 29.051 3.70608 28.9804 3.64074 28.8934C3.5754 28.8064 3.53117 28.7054 3.51153 28.5984C3.49189 28.4914 3.4974 28.3813 3.5276 28.2767L7.60116 14.1797C7.66414 13.9618 7.79618 13.7702 7.97739 13.6339C8.1586 13.4975 8.37917 13.4238 8.60587 13.4238H13.376C13.4847 13.4238 13.592 13.4491 13.6893 13.4977C13.7866 13.5463 13.8712 13.6169 13.9366 13.7039C14.0019 13.7909 14.0461 13.8919 14.0658 13.9989C14.0854 14.1059 14.0799 14.216 14.0497 14.3206L9.97613 28.4176C9.91316 28.6355 9.78112 28.8271 9.59991 28.9634C9.4187 29.0998 9.19813 29.1735 8.97142 29.1735ZM14.4828 36.4423H9.71271C9.60397 36.4423 9.49672 36.417 9.39944 36.3683C9.30216 36.3197 9.2175 36.2492 9.15216 36.1622C9.08682 36.0752 9.04258 35.9742 9.02295 35.8672C9.00331 35.7602 9.00881 35.6501 9.03902 35.5455L13.1126 21.4485C13.1756 21.2305 13.3076 21.039 13.4888 20.9027C13.67 20.7663 13.8906 20.6926 14.1173 20.6926H18.8874C18.9962 20.6926 19.1034 20.7179 19.2007 20.7665C19.298 20.8151 19.3826 20.8857 19.448 20.9727C19.5133 21.0597 19.5575 21.1606 19.5772 21.2677C19.5968 21.3747 19.5913 21.4848 19.5611 21.5893L15.4875 35.6864C15.4246 35.9043 15.2925 36.0959 15.1113 36.2322C14.9301 36.3685 14.7095 36.4423 14.4828 36.4423Z" fill="#959B9F"/>
      <path d="M31.9237 28.112H31.8696C31.5573 28.5995 31.1609 28.9563 30.6804 29.1822C30.1999 29.3963 29.6713 29.5033 29.0947 29.5033C28.6983 29.5033 28.3079 29.4498 27.9235 29.3428C27.5511 29.2357 27.2147 29.0752 26.9144 28.8612C26.6261 28.6471 26.3919 28.3796 26.2117 28.0585C26.0315 27.7375 25.9414 27.3629 25.9414 26.9348C25.9414 26.471 26.0254 26.0786 26.1937 25.7576C26.3618 25.4246 26.584 25.1511 26.8604 24.9371C27.1487 24.7112 27.479 24.5328 27.8514 24.402C28.2238 24.2712 28.6082 24.176 29.0046 24.1166C29.413 24.0453 29.8215 24.0037 30.2299 23.9917C30.6383 23.968 31.0228 23.9561 31.3832 23.9561H31.9237V23.7242C31.9237 23.1891 31.7375 22.7907 31.3651 22.5291C30.9927 22.2557 30.5182 22.1189 29.9416 22.1189C29.4851 22.1189 29.0587 22.2021 28.6623 22.3686C28.2658 22.5232 27.9235 22.7373 27.6352 23.0107L26.5 21.887C26.9804 21.3995 27.539 21.0487 28.1758 20.8346C28.8245 20.6206 29.4911 20.5136 30.1759 20.5136C30.7885 20.5136 31.305 20.5849 31.7255 20.7276C32.1459 20.8584 32.4943 21.0309 32.7706 21.2449C33.0469 21.4589 33.2571 21.7086 33.4013 21.994C33.5574 22.2675 33.6655 22.547 33.7256 22.8323C33.7977 23.1177 33.8397 23.3972 33.8518 23.6707C33.8637 23.9323 33.8698 24.1642 33.8698 24.3663V29.2893H31.9237V28.112ZM31.7976 25.4543H31.3471C31.0468 25.4543 30.7104 25.4663 30.338 25.49C29.9656 25.5138 29.6112 25.5733 29.2749 25.6684C28.9506 25.7517 28.6742 25.8824 28.446 26.0608C28.2178 26.2272 28.1037 26.4651 28.1037 26.7743C28.1037 26.9764 28.1457 27.1489 28.2298 27.2916C28.3259 27.4223 28.446 27.5353 28.5902 27.6304C28.7344 27.7255 28.8965 27.7969 29.0767 27.8445C29.2569 27.8802 29.4371 27.898 29.6173 27.898C30.362 27.898 30.9086 27.7255 31.257 27.3807C31.6174 27.024 31.7976 26.5424 31.7976 25.9359V25.4543ZM35.6556 20.7276H37.7098V22.0119H37.7458C38.0581 21.4887 38.4785 21.1081 39.0073 20.8703C39.5356 20.6325 40.1062 20.5136 40.7189 20.5136C41.3797 20.5136 41.9744 20.6325 42.5028 20.8703C43.0315 21.0963 43.4819 21.4113 43.8543 21.8156C44.2267 22.22 44.5088 22.6956 44.7013 23.2426C44.8935 23.7896 44.9894 24.3782 44.9894 25.0084C44.9894 25.6386 44.8875 26.2272 44.683 26.7743C44.4789 27.3213 44.1905 27.7969 43.8181 28.2012C43.458 28.6055 43.0196 28.9266 42.5028 29.1644C41.9864 29.3904 41.4218 29.5033 40.8091 29.5033C40.4006 29.5033 40.0401 29.4617 39.7278 29.3784C39.4155 29.2952 39.1394 29.1882 38.8991 29.0574C38.6588 28.9266 38.4547 28.7898 38.2864 28.6471C38.1182 28.4925 37.9801 28.3439 37.8719 28.2012H37.8179V33.356H35.6556V20.7276ZM42.8271 25.0084C42.8271 24.6755 42.767 24.3544 42.6468 24.0453C42.539 23.7361 42.3707 23.4626 42.1424 23.2248C41.9263 22.987 41.6618 22.7967 41.3495 22.654C41.0375 22.5113 40.683 22.4399 40.2864 22.4399C39.8901 22.4399 39.5356 22.5113 39.2233 22.654C38.911 22.7967 38.6408 22.987 38.4125 23.2248C38.1964 23.4626 38.0281 23.7361 37.908 24.0453C37.7999 24.3544 37.7458 24.6755 37.7458 25.0084C37.7458 25.3414 37.7999 25.6625 37.908 25.9716C38.0281 26.2808 38.1964 26.5543 38.4125 26.7921C38.6408 27.0299 38.911 27.2202 39.2233 27.3629C39.5356 27.5056 39.8901 27.5769 40.2864 27.5769C40.683 27.5769 41.0375 27.5056 41.3495 27.3629C41.6618 27.2202 41.9263 27.0299 42.1424 26.7921C42.3707 26.5543 42.539 26.2808 42.6468 25.9716C42.767 25.6625 42.8271 25.3414 42.8271 25.0084ZM46.465 20.7276H48.5191V22.0119H48.5553C48.8676 21.4887 49.2878 21.1081 49.8165 20.8703C50.3449 20.6325 50.9157 20.5136 51.5284 20.5136C52.1889 20.5136 52.7836 20.6325 53.312 20.8703C53.8407 21.0963 54.2911 21.4113 54.6635 21.8156C55.0359 22.22 55.3183 22.6956 55.5105 23.2426C55.7027 23.7896 55.7989 24.3782 55.7989 25.0084C55.7989 25.6386 55.6967 26.2272 55.4926 26.7743C55.2881 27.3213 55 27.7969 54.6277 28.2012C54.2672 28.6055 53.8288 28.9266 53.312 29.1644C52.7956 29.3904 52.231 29.5033 51.6184 29.5033C51.2098 29.5033 50.8497 29.4617 50.5374 29.3784C50.2247 29.2952 49.9486 29.1882 49.7083 29.0574C49.468 28.9266 49.2639 28.7898 49.0956 28.6471C48.9273 28.4925 48.7893 28.3439 48.6814 28.2012H48.6273V33.356H46.465V20.7276ZM53.6366 25.0084C53.6366 24.6755 53.5765 24.3544 53.4564 24.0453C53.3482 23.7361 53.1799 23.4626 52.9519 23.2248C52.7355 22.987 52.4713 22.7967 52.159 22.654C51.8467 22.5113 51.4922 22.4399 51.0959 22.4399C50.6993 22.4399 50.3449 22.5113 50.0325 22.654C49.7202 22.7967 49.4501 22.987 49.2217 23.2248C49.0057 23.4626 48.8374 23.7361 48.7172 24.0453C48.609 24.3544 48.5553 24.6755 48.5553 25.0084C48.5553 25.3414 48.609 25.6625 48.7172 25.9716C48.8374 26.2808 49.0057 26.5543 49.2217 26.7921C49.4501 27.0299 49.7202 27.2202 50.0325 27.3629C50.3449 27.5056 50.6993 27.5769 51.0959 27.5769C51.4922 27.5769 51.8467 27.5056 52.159 27.3629C52.4713 27.2202 52.7355 27.0299 52.9519 26.7921C53.1799 26.5543 53.3482 26.2808 53.4564 25.9716C53.5765 25.6625 53.6366 25.3414 53.6366 25.0084ZM57.2742 15.8047H59.4365V21.8156H59.4906C59.5988 21.673 59.7369 21.5303 59.9048 21.3876C60.0731 21.233 60.2775 21.0903 60.5175 20.9595C60.7578 20.8287 61.0343 20.7217 61.3466 20.6384C61.6589 20.5552 62.0193 20.5136 62.4276 20.5136C63.0403 20.5136 63.6048 20.6325 64.1216 20.8703C64.638 21.0963 65.0764 21.4113 65.4369 21.8156C65.8093 22.22 66.0977 22.6956 66.3018 23.2426C66.5059 23.7896 66.6081 24.3782 66.6081 25.0084C66.6081 25.6386 66.5119 26.2272 66.3197 26.7743C66.1276 27.3213 65.8451 27.7969 65.4727 28.2012C65.1007 28.6055 64.65 28.9266 64.1216 29.1644C63.5929 29.3904 62.9984 29.5033 62.3376 29.5033C61.7249 29.5033 61.1544 29.3844 60.6257 29.1466C60.0973 28.9087 59.6768 28.5282 59.3645 28.005H59.3283V29.2893H57.2742V15.8047ZM64.4458 25.0084C64.4458 24.6755 64.3858 24.3544 64.2656 24.0453C64.1574 23.7361 63.9895 23.4626 63.7611 23.2248C63.5447 22.987 63.2805 22.7967 62.9682 22.654C62.6559 22.5113 62.3015 22.4399 61.9052 22.4399C61.5085 22.4399 61.1544 22.5113 60.8421 22.654C60.5298 22.7967 60.2593 22.987 60.0309 23.2248C59.8149 23.4626 59.6466 23.7361 59.5265 24.0453C59.4186 24.3544 59.3645 24.6755 59.3645 25.0084C59.3645 25.3414 59.4186 25.6625 59.5265 25.9716C59.6466 26.2808 59.8149 26.5543 60.0309 26.7921C60.2593 27.0299 60.5298 27.2202 60.8421 27.3629C61.1544 27.5056 61.5085 27.5769 61.9052 27.5769C62.3015 27.5769 62.6559 27.5056 62.9682 27.3629C63.2805 27.2202 63.5447 27.0299 63.7611 26.7921C63.9895 26.5543 64.1574 26.2808 64.2656 25.9716C64.3858 25.6625 64.4458 25.3414 64.4458 25.0084ZM67.651 25.0084C67.651 24.3306 67.7711 23.7183 68.0114 23.1713C68.2637 22.6124 68.6002 22.1367 69.0204 21.7443C69.4409 21.3519 69.9394 21.0487 70.5162 20.8346C71.0927 20.6206 71.7054 20.5136 72.354 20.5136C73.0028 20.5136 73.6155 20.6206 74.192 20.8346C74.7685 21.0487 75.267 21.3519 75.6875 21.7443C76.108 22.1367 76.4383 22.6124 76.6786 23.1713C76.9308 23.7183 77.0573 24.3306 77.0573 25.0084C77.0573 25.6862 76.9308 26.3046 76.6786 26.8635C76.4383 27.4105 76.108 27.8802 75.6875 28.2726C75.267 28.665 74.7685 28.9682 74.192 29.1822C73.6155 29.3963 73.0028 29.5033 72.354 29.5033C71.7054 29.5033 71.0927 29.3963 70.5162 29.1822C69.9394 28.9682 69.4409 28.665 69.0204 28.2726C68.6002 27.8802 68.2637 27.4105 68.0114 26.8635C67.7711 26.3046 67.651 25.6862 67.651 25.0084ZM69.8133 25.0084C69.8133 25.3414 69.8674 25.6625 69.9756 25.9716C70.0957 26.2808 70.264 26.5543 70.4801 26.7921C70.7084 27.0299 70.9786 27.2202 71.2909 27.3629C71.6032 27.5056 71.9577 27.5769 72.354 27.5769C72.7506 27.5769 73.1047 27.5056 73.417 27.3629C73.7293 27.2202 73.9939 27.0299 74.2099 26.7921C74.4383 26.5543 74.6065 26.2808 74.7144 25.9716C74.8345 25.6625 74.8946 25.3414 74.8946 25.0084C74.8946 24.6755 74.8345 24.3544 74.7144 24.0453C74.6065 23.7361 74.4383 23.4626 74.2099 23.2248C73.9939 22.987 73.7293 22.7967 73.417 22.654C73.1047 22.5113 72.7506 22.4399 72.354 22.4399C71.9577 22.4399 71.6032 22.5113 71.2909 22.654C70.9786 22.7967 70.7084 22.987 70.4801 23.2248C70.264 23.4626 70.0957 23.7361 69.9756 24.0453C69.8674 24.3544 69.8133 24.6755 69.8133 25.0084ZM80.7752 24.6874L77.7838 20.7276H80.4147L82.1446 23.2961L84.0185 20.7276H86.4871L83.5319 24.6874L87.0095 29.2893H84.3789L82.1263 26.2213L79.8561 29.2893H77.2972L80.7752 24.6874ZM87.2462 25.0084C87.2462 24.3306 87.3663 23.7183 87.6063 23.1713C87.8588 22.6124 88.1954 22.1367 88.6156 21.7443C89.0358 21.3519 89.5346 21.0487 90.1111 20.8346C90.6876 20.6206 91.3003 20.5136 91.9492 20.5136C92.5977 20.5136 93.2104 20.6206 93.7869 20.8346C94.3637 21.0487 94.8622 21.3519 95.2824 21.7443C95.7029 22.1367 96.0335 22.6124 96.2734 23.1713C96.526 23.7183 96.6521 24.3306 96.6521 25.0084C96.6521 25.6862 96.526 26.3046 96.2734 26.8635C96.0335 27.4105 95.7029 27.8802 95.2824 28.2726C94.8622 28.665 94.3637 28.9682 93.7869 29.1822C93.2104 29.3963 92.5977 29.5033 91.9492 29.5033C91.3003 29.5033 90.6876 29.3963 90.1111 29.1822C89.5346 28.9682 89.0358 28.665 88.6156 28.2726C88.1954 27.8802 87.8588 27.4105 87.6063 26.8635C87.3663 26.3046 87.2462 25.6862 87.2462 25.0084ZM89.4085 25.0084C89.4085 25.3414 89.4622 25.6625 89.5704 25.9716C89.6909 26.2808 89.8589 26.5543 90.0749 26.7921C90.3036 27.0299 90.5738 27.2202 90.8857 27.3629C91.1981 27.5056 91.5525 27.5769 91.9492 27.5769C92.3454 27.5769 92.6999 27.5056 93.0122 27.3629C93.3242 27.2202 93.5887 27.0299 93.8051 26.7921C94.0335 26.5543 94.2014 26.2808 94.3096 25.9716C94.4297 25.6625 94.4898 25.3414 94.4898 25.0084C94.4898 24.6755 94.4297 24.3544 94.3096 24.0453C94.2014 23.7361 94.0335 23.4626 93.8051 23.2248C93.5887 22.987 93.3242 22.7967 93.0122 22.654C92.6999 22.5113 92.3454 22.4399 91.9492 22.4399C91.5525 22.4399 91.1981 22.5113 90.8857 22.654C90.5738 22.7967 90.3036 22.987 90.0749 23.2248C89.8589 23.4626 89.6909 23.7361 89.5704 24.0453C89.4622 24.3544 89.4085 24.6755 89.4085 25.0084Z" fill="#959B9F"/>
    </g>
    <defs>
      <clipPath id="clip0">
        <rect width="95" height="23" fill="white" transform="translate(3.5 13.4238)"/>
      </clipPath>
    </defs>
  </svg>